REM DIRINDEX 1\2,1\4,1\5,1\6,1\7,1\3\8,1\3\9,1\3\10
REM DIRNAME folder01,folder02,folder03,folder04,folder05,folder06,folder07,folder08,folder09,folder10
TITLE ""
FILE "DB4500_5th_6C_28.mp3" MP3
  TRACK 01 AUDIO
    TITLE "0:"
    INDEX 01 00:00:00
  TRACK 02 AUDIO
    TITLE "8:cjc113_4401"
    INDEX 01 00:00:01
  TRACK 03 AUDIO
    TITLE "0:"
    INDEX 01 00:01:11
  TRACK 04 AUDIO
    TITLE "9:cjc113_4402"
    INDEX 01 00:01:28
  TRACK 05 AUDIO
    TITLE "0:"
    INDEX 01 00:02:45
  TRACK 06 AUDIO
    TITLE "10:cjc113_4403"
    INDEX 01 00:02:59
  TRACK 07 AUDIO
    TITLE "0:"
    INDEX 01 00:05:18
  TRACK 08 AUDIO
    TITLE "10:cjc113_4404"
    INDEX 01 00:05:56
  TRACK 09 AUDIO
    TITLE "0:"
    INDEX 01 00:08:56
  TRACK 10 AUDIO
    TITLE "8:cjc113_4405"
    INDEX 01 00:09:22
  TRACK 11 AUDIO
    TITLE "0:"
    INDEX 01 00:10:37
  TRACK 12 AUDIO
    TITLE "9:cjc113_4406"
    INDEX 01 00:10:63
  TRACK 13 AUDIO
    TITLE "0:"
    INDEX 01 00:11:74
  TRACK 14 AUDIO
    TITLE "10:cjc113_4407"
    INDEX 01 00:12:18
  TRACK 15 AUDIO
    TITLE "0:"
    INDEX 01 00:15:38
  TRACK 16 AUDIO
    TITLE "8:cjc113_4408"
    INDEX 01 00:16:04
  TRACK 17 AUDIO
    TITLE "0:"
    INDEX 01 00:17:08
  TRACK 18 AUDIO
    TITLE "9:cjc113_4409"
    INDEX 01 00:17:29
  TRACK 19 AUDIO
    TITLE "0:"
    INDEX 01 00:18:54
  TRACK 20 AUDIO
    TITLE "10:cjc113_4410"
    INDEX 01 00:18:74
  TRACK 21 AUDIO
    TITLE "0:"
    INDEX 01 00:21:13
  TRACK 22 AUDIO
    TITLE "8:cjc113_4411"
    INDEX 01 00:21:57
  TRACK 23 AUDIO
    TITLE "0:"
    INDEX 01 00:22:74
  TRACK 24 AUDIO
    TITLE "9:cjc113_4412"
    INDEX 01 00:23:18
  TRACK 25 AUDIO
    TITLE "0:"
    INDEX 01 00:24:29
  TRACK 26 AUDIO
    TITLE "10:cjc113_4413"
    INDEX 01 00:24:45
  TRACK 27 AUDIO
    TITLE "0:"
    INDEX 01 00:27:49
  TRACK 28 AUDIO
    TITLE "8:cjc113_4414"
    INDEX 01 00:28:13
  TRACK 29 AUDIO
    TITLE "0:"
    INDEX 01 00:29:23
  TRACK 30 AUDIO
    TITLE "9:cjc113_4415"
    INDEX 01 00:29:36
  TRACK 31 AUDIO
    TITLE "0:"
    INDEX 01 00:30:69
  TRACK 32 AUDIO
    TITLE "10:cjc113_4416"
    INDEX 01 00:31:10
  TRACK 33 AUDIO
    TITLE "0:"
    INDEX 01 00:33:62
  TRACK 34 AUDIO
    TITLE "8:cjc113_4417"
    INDEX 01 00:34:28
  TRACK 35 AUDIO
    TITLE "0:"
    INDEX 01 00:35:47
  TRACK 36 AUDIO
    TITLE "9:cjc113_4418"
    INDEX 01 00:35:64
  TRACK 37 AUDIO
    TITLE "0:"
    INDEX 01 00:37:08
  TRACK 38 AUDIO
    TITLE "10:cjc113_4419"
    INDEX 01 00:37:28
  TRACK 39 AUDIO
    TITLE "0:"
    INDEX 01 00:40:40
  TRACK 40 AUDIO
    TITLE "8:cjc113_4420"
    INDEX 01 00:41:02
  TRACK 41 AUDIO
    TITLE "0:"
    INDEX 01 00:42:21
  TRACK 42 AUDIO
    TITLE "9:cjc113_4421"
    INDEX 01 00:42:39
  TRACK 43 AUDIO
    TITLE "0:"
    INDEX 01 00:43:74
  TRACK 44 AUDIO
    TITLE "10:cjc113_4422"
    INDEX 01 00:44:16
  TRACK 45 AUDIO
    TITLE "0:"
    INDEX 01 00:48:71
  TRACK 46 AUDIO
    TITLE "8:cjc113_4423"
    INDEX 01 00:49:39
  TRACK 47 AUDIO
    TITLE "0:"
    INDEX 01 00:50:62
  TRACK 48 AUDIO
    TITLE "9:cjc113_4424"
    INDEX 01 00:51:01
  TRACK 49 AUDIO
    TITLE "0:"
    INDEX 01 00:52:22
  TRACK 50 AUDIO
    TITLE "10:cjc113_4425"
    INDEX 01 00:52:39
  TRACK 51 AUDIO
    TITLE "0:"
    INDEX 01 00:56:35
  TRACK 52 AUDIO
    TITLE "8:cjc113_4426"
    INDEX 01 00:56:72
  TRACK 53 AUDIO
    TITLE "0:"
    INDEX 01 00:58:20
  TRACK 54 AUDIO
    TITLE "9:cjc113_4427"
    INDEX 01 00:58:36
  TRACK 55 AUDIO
    TITLE "0:"
    INDEX 01 00:59:73
  TRACK 56 AUDIO
    TITLE "10:cjc113_4428"
    INDEX 01 01:00:12
  TRACK 57 AUDIO
    TITLE "0:"
    INDEX 01 01:03:22
  TRACK 58 AUDIO
    TITLE "8:cjc113_4429"
    INDEX 01 01:03:65
  TRACK 59 AUDIO
    TITLE "0:"
    INDEX 01 01:04:68
  TRACK 60 AUDIO
    TITLE "9:cjc113_4430"
    INDEX 01 01:05:07
  TRACK 61 AUDIO
    TITLE "0:"
    INDEX 01 01:06:20
  TRACK 62 AUDIO
    TITLE "10:cjc113_4431"
    INDEX 01 01:06:38
  TRACK 63 AUDIO
    TITLE "0:"
    INDEX 01 01:08:68
  TRACK 64 AUDIO
    TITLE "8:cjc113_4432"
    INDEX 01 01:09:36
  TRACK 65 AUDIO
    TITLE "0:"
    INDEX 01 01:10:53
  TRACK 66 AUDIO
    TITLE "9:cjc113_4433"
    INDEX 01 01:10:69
  TRACK 67 AUDIO
    TITLE "0:"
    INDEX 01 01:11:68
  TRACK 68 AUDIO
    TITLE "10:cjc113_4434"
    INDEX 01 01:12:09
  TRACK 69 AUDIO
    TITLE "0:"
    INDEX 01 01:15:54
  TRACK 70 AUDIO
    TITLE "8:cjc113_4435"
    INDEX 01 01:16:14
  TRACK 71 AUDIO
    TITLE "0:"
    INDEX 01 01:17:39
  TRACK 72 AUDIO
    TITLE "9:cjc113_4436"
    INDEX 01 01:17:55
  TRACK 73 AUDIO
    TITLE "0:"
    INDEX 01 01:18:66
  TRACK 74 AUDIO
    TITLE "10:cjc113_4437"
    INDEX 01 01:19:03
  TRACK 75 AUDIO
    TITLE "0:"
    INDEX 01 01:22:50
  TRACK 76 AUDIO
    TITLE "8:cjc113_4438"
    INDEX 01 01:23:15
  TRACK 77 AUDIO
    TITLE "0:"
    INDEX 01 01:24:20
  TRACK 78 AUDIO
    TITLE "9:cjc113_4439"
    INDEX 01 01:24:36
  TRACK 79 AUDIO
    TITLE "0:"
    INDEX 01 01:25:58
  TRACK 80 AUDIO
    TITLE "10:cjc113_4440"
    INDEX 01 01:25:74
  TRACK 81 AUDIO
    TITLE "0:"
    INDEX 01 01:29:15
  TRACK 82 AUDIO
    TITLE "8:cjc113_4441"
    INDEX 01 01:29:56
  TRACK 83 AUDIO
    TITLE "0:"
    INDEX 01 01:30:62
  TRACK 84 AUDIO
    TITLE "9:cjc113_4442"
    INDEX 01 01:31:02
  TRACK 85 AUDIO
    TITLE "0:"
    INDEX 01 01:32:23
  TRACK 86 AUDIO
    TITLE "10:cjc113_4443"
    INDEX 01 01:32:39
  TRACK 87 AUDIO
    TITLE "0:"
    INDEX 01 01:36:09
